<svg width="40" height="40" viewBox="0 0 40 40" fill="none" xmlns="http://www.w3.org/2000/svg">
<path d="M6.66665 6.66668H11.6666L15 3.33334H25L28.3333 6.66668H33.3333C34.2174 6.66668 35.0652 7.01787 35.6903 7.64299C36.3155 8.26811 36.6666 9.11595 36.6666 10V30C36.6666 30.8841 36.3155 31.7319 35.6903 32.357C35.0652 32.9822 34.2174 33.3333 33.3333 33.3333H6.66665C5.78259 33.3333 4.93474 32.9822 4.30962 32.357C3.6845 31.7319 3.33331 30.8841 3.33331 30V10C3.33331 9.11595 3.6845 8.26811 4.30962 7.64299C4.93474 7.01787 5.78259 6.66668 6.66665 6.66668ZM20 11.6667C17.7898 11.6667 15.6702 12.5447 14.1074 14.1075C12.5446 15.6703 11.6666 17.7899 11.6666 20C11.6666 22.2101 12.5446 24.3298 14.1074 25.8926C15.6702 27.4554 17.7898 28.3333 20 28.3333C22.2101 28.3333 24.3297 27.4554 25.8925 25.8926C27.4553 24.3298 28.3333 22.2101 28.3333 20C28.3333 17.7899 27.4553 15.6703 25.8925 14.1075C24.3297 12.5447 22.2101 11.6667 20 11.6667ZM20 15C21.3261 15 22.5978 15.5268 23.5355 16.4645C24.4732 17.4022 25 18.6739 25 20C25 21.3261 24.4732 22.5979 23.5355 23.5355C22.5978 24.4732 21.3261 25 20 25C18.6739 25 17.4021 24.4732 16.4644 23.5355C15.5268 22.5979 15 21.3261 15 20C15 18.6739 15.5268 17.4022 16.4644 16.4645C17.4021 15.5268 18.6739 15 20 15Z" fill="black"/>
</svg>
