<svg width="20" height="20" viewBox="0 0 20 20" fill="none" xmlns="http://www.w3.org/2000/svg">
<path d="M3 15.8339V15.8333V4.16665C3 3.8421 3.10982 3.57644 3.34355 3.3427C3.57727 3.10898 3.84247 2.99959 4.16606 2.99998H4.16667H7.66667H8.01771L8.13694 2.6698C8.28393 2.26277 8.52501 1.94284 8.86571 1.69725C9.20365 1.45366 9.57672 1.33331 10 1.33331C10.424 1.33331 10.7973 1.45372 11.1351 1.69725C11.4757 1.94276 11.7164 2.26253 11.8629 2.66934L11.9819 2.99998H12.3333H15.8333C16.1579 2.99998 16.4235 3.1098 16.6573 3.34353C16.891 3.57725 17.0004 3.84244 17 4.16604V4.16665V15.8333C17 16.1579 16.8902 16.4235 16.6564 16.6573C16.4227 16.891 16.1575 17.0004 15.8339 17H15.8333H4.16667C3.84212 17 3.57646 16.8902 3.34272 16.6564C3.109 16.4227 2.99961 16.1575 3 15.8339ZM11.125 2.91819V2.91665C11.125 2.61504 11.021 2.33449 10.8002 2.11476L10.4475 2.46915L10.8002 2.11476C10.5808 1.89639 10.3019 1.79258 10.0015 1.79165H10C9.6984 1.79165 9.41785 1.89566 9.19812 2.11643C8.97975 2.33582 8.87593 2.61478 8.875 2.9151V2.91665C8.875 3.21825 8.97901 3.4988 9.19978 3.71853C9.41918 3.9369 9.69814 4.04072 9.99846 4.04165H10C10.3016 4.04165 10.5822 3.93764 10.8019 3.71687C11.0203 3.49747 11.1241 3.21851 11.125 2.91819ZM8.83333 10.3345L7.39522 8.89643C7.13951 8.64072 6.81351 8.52081 6.45833 8.52081C6.10316 8.52081 5.77716 8.64072 5.52145 8.89643C5.26574 9.15213 5.14583 9.47814 5.14583 9.83331C5.14583 10.1885 5.26574 10.5145 5.52145 10.7702L7.89645 13.1452C8.15057 13.3993 8.46984 13.5416 8.83333 13.5416C9.19683 13.5416 9.5161 13.3993 9.77022 13.1452L14.4786 8.43687C14.7343 8.18116 14.8542 7.85515 14.8542 7.49998C14.8542 7.14481 14.7343 6.8188 14.4786 6.56309C14.2228 6.30738 13.8968 6.18748 13.5417 6.18748C13.1865 6.18748 12.8605 6.30738 12.6048 6.56309L8.83333 10.3345Z" fill="#FAFF04" stroke="black"/>
</svg>
