<svg width="25" height="25" viewBox="0 0 25 25" fill="none" xmlns="http://www.w3.org/2000/svg">
<path d="M6.6156 11.7188H22.2406C22.4478 11.7188 22.6465 11.8011 22.793 11.9476C22.9395 12.0941 23.0219 12.2928 23.0219 12.5C23.0219 12.7072 22.9395 12.9059 22.793 13.0524C22.6465 13.1989 22.4478 13.2812 22.2406 13.2812H6.6156C6.4084 13.2812 6.20969 13.1989 6.06317 13.0524C5.91666 12.9059 5.83435 12.7072 5.83435 12.5C5.83435 12.2928 5.91666 12.0941 6.06317 11.9476C6.20969 11.8011 6.4084 11.7188 6.6156 11.7188Z" fill="black"/>
<path d="M5.79218 12.5L12.2719 18.9781C12.4186 19.1248 12.501 19.3238 12.501 19.5313C12.501 19.7387 12.4186 19.9377 12.2719 20.0844C12.1252 20.2311 11.9262 20.3135 11.7187 20.3135C11.5113 20.3135 11.3123 20.2311 11.1656 20.0844L4.13437 13.0531C4.06161 12.9806 4.00389 12.8944 3.9645 12.7994C3.92512 12.7045 3.90485 12.6028 3.90485 12.5C3.90485 12.3972 3.92512 12.2955 3.9645 12.2006C4.00389 12.1057 4.06161 12.0195 4.13437 11.9469L11.1656 4.91564C11.3123 4.76894 11.5113 4.68652 11.7187 4.68652C11.9262 4.68652 12.1252 4.76894 12.2719 4.91564C12.4186 5.06233 12.501 5.2613 12.501 5.46876C12.501 5.67622 12.4186 5.87519 12.2719 6.02189L5.79218 12.5Z" fill="black"/>
</svg>
