<svg width="28" height="30" viewBox="0 0 28 30" fill="none" xmlns="http://www.w3.org/2000/svg">
<path d="M13.9726 14.375C13.2006 14.375 12.4601 14.0458 11.9142 13.4597C11.3683 12.8737 11.0616 12.0788 11.0616 11.25C11.0616 10.4212 11.3683 9.62634 11.9142 9.04029C12.4601 8.45424 13.2006 8.125 13.9726 8.125C14.7446 8.125 15.485 8.45424 16.0309 9.04029C16.5769 9.62634 16.8835 10.4212 16.8835 11.25C16.8835 11.6604 16.8083 12.0667 16.662 12.4459C16.5157 12.825 16.3013 13.1695 16.0309 13.4597C15.7606 13.7499 15.4397 13.9801 15.0866 14.1371C14.7334 14.2942 14.3549 14.375 13.9726 14.375ZM13.9726 2.5C11.8109 2.5 9.73773 3.42187 8.20918 5.06282C6.68063 6.70376 5.8219 8.92936 5.8219 11.25C5.8219 17.8125 13.9726 27.5 13.9726 27.5C13.9726 27.5 22.1233 17.8125 22.1233 11.25C22.1233 8.92936 21.2645 6.70376 19.736 5.06282C18.2074 3.42187 16.1343 2.5 13.9726 2.5Z" fill="black"/>
</svg>
