<svg width="20" height="20" viewBox="0 0 20 20" fill="none" xmlns="http://www.w3.org/2000/svg">
<path d="M3 15.834V15.8334V4.16671C3 3.84216 3.10982 3.5765 3.34355 3.34276C3.57727 3.10904 3.84247 2.99965 4.16606 3.00004H4.16667H7.66667H8.01771L8.13694 2.66986C8.28393 2.26283 8.52501 1.9429 8.86571 1.69731C9.20365 1.45372 9.57672 1.33337 10 1.33337C10.424 1.33337 10.7973 1.45379 11.1351 1.69731C11.4757 1.94282 11.7164 2.26259 11.8629 2.6694L11.9819 3.00004H12.3333H15.8333C16.1579 3.00004 16.4235 3.10986 16.6573 3.34359C16.891 3.57731 17.0004 3.8425 17 4.1661V4.16671V15.8334C17 16.1579 16.8902 16.4236 16.6564 16.6573C16.4227 16.891 16.1575 17.0004 15.8339 17H15.8333H4.16667C3.84212 17 3.57646 16.8902 3.34272 16.6565C3.109 16.4228 2.99961 16.1576 3 15.834ZM11.125 2.91825V2.91671C11.125 2.6151 11.021 2.33456 10.8002 2.11482L10.4475 2.46921L10.8002 2.11482C10.5808 1.89645 10.3019 1.79264 10.0015 1.79171H10C9.6984 1.79171 9.41785 1.89572 9.19812 2.11649C8.97975 2.33589 8.87593 2.61484 8.875 2.91516V2.91671C8.875 3.21831 8.97901 3.49886 9.19978 3.71859C9.41918 3.93696 9.69814 4.04078 9.99846 4.04171H10C10.3016 4.04171 10.5822 3.9377 10.8019 3.71693C11.0203 3.49753 11.1241 3.21857 11.125 2.91825ZM8.83333 10.3346L7.39522 8.89649C7.13951 8.64078 6.81351 8.52087 6.45833 8.52087C6.10316 8.52087 5.77716 8.64078 5.52145 8.89649C5.26574 9.1522 5.14583 9.4782 5.14583 9.83337C5.14583 10.1885 5.26574 10.5146 5.52145 10.7703L7.89645 13.1453C8.15057 13.3994 8.46984 13.5417 8.83333 13.5417C9.19683 13.5417 9.5161 13.3994 9.77022 13.1453L14.4786 8.43693C14.7343 8.18122 14.8542 7.85521 14.8542 7.50004C14.8542 7.14487 14.7343 6.81886 14.4786 6.56315C14.2228 6.30745 13.8968 6.18754 13.5417 6.18754C13.1865 6.18754 12.8605 6.30745 12.6048 6.56315L8.83333 10.3346Z" fill="#36FF04" stroke="black"/>
</svg>
