<svg width="24" height="24" viewBox="0 0 24 24" fill="none" xmlns="http://www.w3.org/2000/svg">
<path d="M12 18.275L7.84999 20.775C7.66666 20.8917 7.47499 20.9417 7.27499 20.925C7.07499 20.9083 6.89999 20.8417 6.74999 20.725C6.59999 20.6083 6.48333 20.4623 6.39999 20.287C6.31666 20.1117 6.29999 19.916 6.34999 19.7L7.44999 14.975L3.77499 11.8C3.60833 11.65 3.50433 11.479 3.46299 11.287C3.42166 11.095 3.43399 10.9077 3.49999 10.725C3.56666 10.5417 3.66666 10.3917 3.79999 10.275C3.93333 10.1583 4.11666 10.0833 4.34999 10.05L9.19999 9.625L11.075 5.175C11.1583 4.975 11.2877 4.825 11.463 4.725C11.6383 4.625 11.8173 4.575 12 4.575C12.1833 4.575 12.3623 4.625 12.537 4.725C12.7117 4.825 12.841 4.975 12.925 5.175L14.8 9.625L19.65 10.05C19.8833 10.0833 20.0667 10.1583 20.2 10.275C20.3333 10.3917 20.4333 10.5417 20.5 10.725C20.5667 10.9083 20.5793 11.096 20.538 11.288C20.4967 11.48 20.3923 11.6507 20.225 11.8L16.55 14.975L17.65 19.7C17.7 19.9167 17.6833 20.1127 17.6 20.288C17.5167 20.4633 17.4 20.609 17.25 20.725C17.1 20.8417 16.925 20.9083 16.725 20.925C16.525 20.9417 16.3333 20.8917 16.15 20.775L12 18.275Z" fill="black"/>
</svg>
