<svg width="28" height="28" viewBox="0 0 28 28" fill="none" xmlns="http://www.w3.org/2000/svg">
<path d="M22.1667 4.66668H19.8333V3.50001C19.8333 3.19059 19.7104 2.89384 19.4916 2.67505C19.2728 2.45626 18.9761 2.33334 18.6667 2.33334C18.3573 2.33334 18.0605 2.45626 17.8417 2.67505C17.6229 2.89384 17.5 3.19059 17.5 3.50001V4.66668H10.5V3.50001C10.5 3.19059 10.3771 2.89384 10.1583 2.67505C9.93951 2.45626 9.64276 2.33334 9.33334 2.33334C9.02392 2.33334 8.72718 2.45626 8.50839 2.67505C8.28959 2.89384 8.16668 3.19059 8.16668 3.50001V4.66668H5.83334C4.90509 4.66668 4.01485 5.03543 3.35847 5.6918C2.70209 6.34818 2.33334 7.23842 2.33334 8.16668V22.1667C2.33334 23.0949 2.70209 23.9852 3.35847 24.6416C4.01485 25.2979 4.90509 25.6667 5.83334 25.6667H22.1667C23.0949 25.6667 23.9852 25.2979 24.6416 24.6416C25.2979 23.9852 25.6667 23.0949 25.6667 22.1667V8.16668C25.6667 7.23842 25.2979 6.34818 24.6416 5.6918C23.9852 5.03543 23.0949 4.66668 22.1667 4.66668ZM23.3333 22.1667C23.3333 22.4761 23.2104 22.7728 22.9916 22.9916C22.7728 23.2104 22.4761 23.3333 22.1667 23.3333H5.83334C5.52392 23.3333 5.22718 23.2104 5.00839 22.9916C4.78959 22.7728 4.66668 22.4761 4.66668 22.1667V14H23.3333V22.1667ZM23.3333 11.6667H4.66668V8.16668C4.66668 7.85726 4.78959 7.56051 5.00839 7.34172C5.22718 7.12293 5.52392 7.00001 5.83334 7.00001H8.16668V8.16668C8.16668 8.4761 8.28959 8.77284 8.50839 8.99163C8.72718 9.21043 9.02392 9.33334 9.33334 9.33334C9.64276 9.33334 9.93951 9.21043 10.1583 8.99163C10.3771 8.77284 10.5 8.4761 10.5 8.16668V7.00001H17.5V8.16668C17.5 8.4761 17.6229 8.77284 17.8417 8.99163C18.0605 9.21043 18.3573 9.33334 18.6667 9.33334C18.9761 9.33334 19.2728 9.21043 19.4916 8.99163C19.7104 8.77284 19.8333 8.4761 19.8333 8.16668V7.00001H22.1667C22.4761 7.00001 22.7728 7.12293 22.9916 7.34172C23.2104 7.56051 23.3333 7.85726 23.3333 8.16668V11.6667Z" fill="black"/>
</svg>
