<svg width="80" height="80" viewBox="0 0 80 80" fill="none" xmlns="http://www.w3.org/2000/svg">
<path d="M16.6667 70C14.8333 70 13.2633 69.3467 11.9567 68.04C10.65 66.7333 9.99778 65.1644 10 63.3333V16.6667C10 14.8333 10.6533 13.2633 11.96 11.9567C13.2667 10.65 14.8356 9.99778 16.6667 10H63.3333C65.1667 10 66.7367 10.6533 68.0433 11.96C69.35 13.2667 70.0022 14.8356 70 16.6667V63.3333C70 65.1667 69.3467 66.7367 68.04 68.0433C66.7333 69.35 65.1644 70.0022 63.3333 70H16.6667ZM20 56.6667H60L47.5 40L37.5 53.3333L30 43.3333L20 56.6667Z" fill="black"/>
</svg>
