<svg width="130" height="130" viewBox="0 0 130 130" fill="none" xmlns="http://www.w3.org/2000/svg">
<path d="M51.6667 51.6667H56.6667L60 48.3334H70L73.3334 51.6667H78.3334C79.2174 51.6667 80.0653 52.0179 80.6904 52.643C81.3155 53.2681 81.6667 54.116 81.6667 55V75C81.6667 75.8841 81.3155 76.7319 80.6904 77.3571C80.0653 77.9822 79.2174 78.3334 78.3334 78.3334H51.6667C50.7827 78.3334 49.9348 77.9822 49.3097 77.3571C48.6846 76.7319 48.3334 75.8841 48.3334 75V55C48.3334 54.116 48.6846 53.2681 49.3097 52.643C49.9348 52.0179 50.7827 51.6667 51.6667 51.6667ZM65 56.6667C62.7899 56.6667 60.6703 57.5447 59.1075 59.1075C57.5447 60.6703 56.6667 62.7899 56.6667 65C56.6667 67.2102 57.5447 69.3298 59.1075 70.8926C60.6703 72.4554 62.7899 73.3334 65 73.3334C67.2102 73.3334 69.3298 72.4554 70.8926 70.8926C72.4554 69.3298 73.3334 67.2102 73.3334 65C73.3334 62.7899 72.4554 60.6703 70.8926 59.1075C69.3298 57.5447 67.2102 56.6667 65 56.6667ZM65 60C66.3261 60 67.5979 60.5268 68.5356 61.4645C69.4733 62.4022 70 63.674 70 65C70 66.3261 69.4733 67.5979 68.5356 68.5356C67.5979 69.4733 66.3261 70 65 70C63.674 70 62.4022 69.4733 61.4645 68.5356C60.5268 67.5979 60 66.3261 60 65C60 63.674 60.5268 62.4022 61.4645 61.4645C62.4022 60.5268 63.674 60 65 60Z" fill="black"/>
<circle cx="65" cy="65" r="65" fill="#5BB5E7" fill-opacity="0.57"/>
</svg>
