<svg width="30" height="30" viewBox="0 0 30 30" fill="none" xmlns="http://www.w3.org/2000/svg">
<path d="M15 26.25C12.125 26.25 9.61958 25.2967 7.48375 23.39C5.34792 21.4833 4.12417 19.1033 3.8125 16.25H6.375C6.66667 18.4167 7.63042 20.2083 9.26625 21.625C10.9021 23.0417 12.8133 23.75 15 23.75C17.4375 23.75 19.5054 22.9008 21.2037 21.2025C22.9021 19.5042 23.7508 17.4367 23.75 15C23.75 12.5625 22.9008 10.4946 21.2025 8.79625C19.5042 7.09792 17.4367 6.24917 15 6.25C13.5625 6.25 12.2188 6.58333 10.9687 7.25C9.71875 7.91667 8.66667 8.83333 7.8125 10H11.25V12.5H3.75V5H6.25V7.9375C7.3125 6.60417 8.60958 5.57292 10.1412 4.84375C11.6729 4.11458 13.2925 3.75 15 3.75C16.5625 3.75 18.0262 4.04708 19.3912 4.64125C20.7562 5.23542 21.9438 6.03708 22.9538 7.04625C23.9638 8.05708 24.7658 9.24458 25.36 10.6088C25.9542 11.9729 26.2508 13.4367 26.25 15C26.25 16.5625 25.9529 18.0262 25.3588 19.3912C24.7646 20.7562 23.9629 21.9438 22.9538 22.9538C21.9429 23.9638 20.7554 24.7658 19.3912 25.36C18.0271 25.9542 16.5633 26.2508 15 26.25ZM18.5 20.25L13.75 15.5V8.75H16.25V14.5L20.25 18.5L18.5 20.25Z" fill="black"/>
</svg>
